<?xml version="1.0" encoding="utf-8"?>
<!-- Generator: Adobe Illustrator 16.0.3, SVG Export Plug-In . SVG Version: 6.00 Build 0)  -->
<!DOCTYPE svg PUBLIC "-//W3C//DTD SVG 1.1//EN" "http://www.w3.org/Graphics/SVG/1.1/DTD/svg11.dtd">
<svg version="1.1" id="Layer_1" xmlns="http://www.w3.org/2000/svg" xmlns:xlink="http://www.w3.org/1999/xlink" x="0px" y="0px"
	 width="341.244px" height="252.949px" viewBox="0 0 341.244 252.949" enable-background="new 0 0 341.244 252.949"
	 xml:space="preserve">
<g>
	<defs>
		<rect id="SVGID_1_" width="341.244" height="252.949"/>
	</defs>
	<clipPath id="SVGID_2_">
		<use xlink:href="#SVGID_1_"  overflow="visible"/>
	</clipPath>
	<path clip-path="url(#SVGID_2_)" fill="#FFFFFF" d="M42.376,33.265H34.9v16.917H0V0h50.335C76.734,0,87.506,4.328,88.792,15.49
		c0.639,5.552-2.414,15.578-14.652,16.576l18.255,18.116H55.48L42.376,33.265z M34.699,22.765h6.994c7.517,0,9.695-2.405,9.75-4.804
		c0.108-4.647-0.785-8.266-9.376-8.266h-7.368V22.765z"/>
	<path clip-path="url(#SVGID_2_)" fill="#FFFFFF" d="M155.249,9.724h0.357l7.713,17.024h-16.747L155.249,9.724z M128.479,0
		l-26.848,50.181h36.691l5.005-12.145h23.321l5.455,12.145h36.689L182.841,0H128.479z"/>
	<polygon clip-path="url(#SVGID_2_)" fill="#FFFFFF" points="307.262,50.182 307.273,21.278 305.696,21.278 290.033,50.182 
		268.669,50.182 254.056,21.415 252.57,21.428 252.447,50.182 218.894,50.182 218.894,0 270.683,0 280.079,15.779 280.53,15.779 
		289.813,0 340.821,0 340.821,50.182 	"/>
	<rect y="79.151" clip-path="url(#SVGID_2_)" fill="#FFFFFF" width="340.494" height="2.194"/>
	<polygon clip-path="url(#SVGID_2_)" fill="#FFFFFF" points="0.855,235.461 0.855,126.786 18.342,109.298 56.858,109.298 
		74.346,126.786 74.346,156.557 47.698,156.557 47.698,137.403 41.661,131.366 33.542,131.366 27.711,137.403 27.711,225.676 
		33.542,231.506 41.661,231.506 47.698,225.676 47.698,205.481 74.346,205.481 74.346,235.461 56.858,252.949 18.342,252.949 	"/>
	<path clip-path="url(#SVGID_2_)" fill="#FFFFFF" d="M107.239,109.298h39.139l22.069,143.651h-26.441l-4.163-33.311h-23.317
		l-4.164,33.311H85.17L107.239,109.298z M117.232,197.57h17.696l-8.744-71.201L117.232,197.57z"/>
	<path clip-path="url(#SVGID_2_)" fill="#FFFFFF" d="M182.603,109.298h59.75l17.488,17.488v50.382l-14.366,14.157l16.032,61.624
		h-27.065l-14.573-58.71h-10.409v58.71h-26.856V109.298z M227.155,173.629l5.829-6.038v-31.645l-5.829-6.038h-17.696v43.721H227.155
		z"/>
	<polygon clip-path="url(#SVGID_2_)" fill="#FFFFFF" points="277.746,109.298 340.827,109.298 340.827,132.823 304.602,132.823 
		304.602,168.007 337.497,168.007 337.497,191.533 304.602,191.533 304.602,229.424 341.244,229.424 341.244,252.949 
		277.746,252.949 	"/>
</g>
</svg>
